<svg xmlns="http://www.w3.org/2000/svg" width="229" height="81" fill="none"><path fill="#fff" d="M99.3 0h16.5v78.8H99.3V0Zm57.4 64.4a8.5 8.5 0 0 1-5.5 1.9c-3 0-5.6-2.7-5.6-6.5v-26h12.7V20.5h-12.7V0h-15.8v62.4a17 17 0 0 0 17.5 17.8c3.2 0 6.5-1 9.4-2.4V64.4Zm40.9-31.3a16.6 16.6 0 1 1 0 33.2 16.6 16.6 0 0 1 0-33.2Zm0-14a30.5 30.5 0 1 0 0 61 30.5 30.5 0 0 0 0-61Z"/><path fill="#fff" d="M99.3 0h16.5v78.8H99.3V0ZM17.2 78.8 42.7 22c.8-2 3.6-2 4.5 0l25.4 56.8h17.2L58.6 9.2A15.2 15.2 0 0 0 45 0c-6 0-11.2 3.4-13.6 8.8L0 78.9h17.2Z"/></svg>